<?xml version="1.0" encoding="UTF-8" standalone="no"?>
<!-- Created with Inkscape (http://www.inkscape.org/) -->

<svg
   width="512"
   height="512"
   viewBox="0 0 512.00001 512.00001"
   id="svg2"
   version="1.1"
   inkscape:version="1.1 (c68e22c387, 2021-05-23)"
   sodipodi:docname="drake-blue.svg"
   inkscape:export-filename="Z:\drake-blue.png"
   inkscape:export-xdpi="96"
   inkscape:export-ydpi="96"
   xmlns:inkscape="http://www.inkscape.org/namespaces/inkscape"
   xmlns:sodipodi="http://sodipodi.sourceforge.net/DTD/sodipodi-0.dtd"
   xmlns="http://www.w3.org/2000/svg"
   xmlns:svg="http://www.w3.org/2000/svg"
   xmlns:rdf="http://www.w3.org/1999/02/22-rdf-syntax-ns#"
   xmlns:cc="http://creativecommons.org/ns#"
   xmlns:dc="http://purl.org/dc/elements/1.1/">
  <defs
     id="defs4" />
  <sodipodi:namedview
     id="base"
     pagecolor="#ffffff"
     bordercolor="#666666"
     borderopacity="1.0"
     inkscape:pageopacity="0.0"
     inkscape:pageshadow="2"
     inkscape:zoom="0.35"
     inkscape:cx="-795.71429"
     inkscape:cy="521.42857"
     inkscape:document-units="px"
     inkscape:current-layer="layer1"
     showgrid="false"
     inkscape:window-width="1920"
     inkscape:window-height="1009"
     inkscape:window-x="1912"
     inkscape:window-y="-8"
     inkscape:window-maximized="1"
     units="px"
     inkscape:pagecheckerboard="0" />
  <metadata
     id="metadata7">
    <rdf:RDF>
      <cc:Work
         rdf:about="">
        <dc:format>image/svg+xml</dc:format>
        <dc:type
           rdf:resource="http://purl.org/dc/dcmitype/StillImage" />
        <dc:title />
      </cc:Work>
    </rdf:RDF>
  </metadata>
  <g
     inkscape:label="Layer 1"
     inkscape:groupmode="layer"
     id="layer1"
     transform="translate(0,-540.36216)">
    <path
       style="fill:#0500f6;fill-opacity:1;stroke:none;stroke-opacity:1"
       d="M 92.298696,1048.0647 C 101.88895,1010.1 134.10415,985.12997 164.06344,962.61175 186.56821,938.5141 139.24705,948.95639 129.15478,957.86344 87.991104,975.85318 56.030281,1008.6993 26.814487,1041.524 55.302432,989.40494 107.87856,953.56374 164.09568,935.56423 c 53.09853,-19.70912 110.37265,-33.94794 155.84182,-68.94145 23.87104,-18.37656 34.7172,-50.85563 29.50826,-79.87799 -6.56553,-25.03409 -45.43278,-15.52158 -55.07442,-19.23454 13.36585,-13.48361 34.81043,-3.08282 40.17404,-16.71713 45.05358,-11.03859 97.37588,-14.02299 137.02041,13.79989 25.6522,23.50703 18.45519,61.85202 15.4223,92.49982 -1.86321,10.48709 -4.08364,23.22632 -4.99018,5.28473 -0.39958,-11.24114 -8.37823,-55.30547 -16.48427,-28.75271 -2.69719,41.04573 -12.75519,86.39923 -46.87491,113.3946 6.4992,-18.95774 28.40082,-41.03297 21.17098,-59.63004 -19.43687,16.23713 -29.01621,41.95824 -45.75674,61.06691 -11.06311,12.36372 -32.8083,35.3107 -42.25902,35.7429 11.68024,-9.17691 35.0506,-53.84854 3.54466,-41.46065 -27.7601,21.74363 -50.84467,50.66373 -85.37252,62.67233 -9.62513,4.8437 -36.12925,14.7804 -13.51065,1.9374 22.61034,-15.03876 47.07306,-29.79107 62.66269,-52.4326 -2.51277,-27.63924 -42.85629,-3.14099 -59.28033,3.73085 -33.45878,16.61966 -63.99349,39.5056 -87.14046,68.69435 18.178,-33.76828 49.80938,-57.99263 84.04376,-74.63599 14.71391,-2.6728 28.61146,-24.51239 3.97244,-21.6021 C 191.9733,945.22052 125.8984,985.96599 92.59355,1048.4243 l -0.294854,-0.3596 0,0 z M 207.09362,939.53376 c 18.96555,-10.62881 41.72146,-12.2268 60.57085,-22.29432 20.99039,-20.55915 -20.92928,1.4605 -31.61676,3.55388 -16.02511,7.81092 -45.88245,9.93521 -53.39719,19.80385 3.20342,17.01517 14.46703,0.43096 24.4431,-1.06341 z m 130.68886,-6.54559 c 22.72014,-29.95445 29.10168,-70.31046 23.00166,-106.6551 -11.04573,14.73669 -13.77549,32.1684 -17.36722,49.66831 -7.48352,21.8552 -24.31475,38.57934 -38.36496,56.37775 15.68879,-10.43158 24.33802,17.46303 32.73052,0.60904 z m -26.98972,-21.31322 c 10.21942,-10.09405 30.12508,-43.65391 24.19134,-46.89033 -14.48973,16.25547 -38.73049,23.72282 -46.5843,44.20325 -15.88113,8.28749 -9.61563,16.13317 1.67171,21.88624 7.67732,-5.54098 14.38927,-12.21643 20.72125,-19.19916 z m 57.64738,15.26563 c 20.61715,-8.94132 20.45302,-40.17662 22.12418,-60.31767 -0.18074,-28.69005 -5.18729,-61.59061 -29.26123,-80.53281 -0.76177,16.56224 4.7488,31.28935 10.54134,46.26526 4.67325,33.00257 -7.28243,64.98005 -16.2827,96.19653 4.3462,-0.22967 8.46512,-1.95893 12.87841,-1.61131 z m 47.31602,-26.51529 c 19.82641,-40.15574 3.28328,-91.86381 -30.31248,-119.88802 -10.45276,-9.568 -40.60423,-21.64824 -16.15671,-2.82409 27.77601,29.17943 32.49228,70.93588 29.46739,109.17005 2.04661,12.36096 -12.95649,55.00847 7.50625,26.93697 3.47203,-4.23766 6.84092,-8.59789 9.49555,-13.39491 z M 453.83592,848.231 c 3.52472,-27.79967 -0.96244,-60.31132 -26.39576,-77.09678 -16.35048,-12.5476 -44.7206,-19.88756 -61.943,-13.50067 30.29498,13.06637 57.47653,37.62746 63.67165,70.99065 10.55041,11.45565 -4.58941,47.11412 16.71986,41.85323 8.24405,7.62599 5.92837,-18.74803 7.94725,-22.24643 z m 24.76313,-48.6055 c -0.27139,-19.03099 -36.1607,-43.58469 -39.79435,-35.79806 17.89956,13.06864 19.49456,52.4383 41.42184,41.36231 l -0.70156,-2.52316 -0.92593,-3.04109 z M 18.829943,1017.7667 c 12.763139,-7.7362 42.71615,-29.61212 41.833476,-36.97298 -9.604451,7.35571 -40.216699,11.7654 -40.249034,6.19983 28.708264,0.43576 54.216429,-19.52116 61.328713,-46.8206 0.884436,-12.83638 13.093726,-32.10568 8.54654,-7.3248 -5.502929,36.74915 -31.600514,67.44775 -65.511948,82.44145 l -3.111781,1.5514 -2.835966,0.9257 0,0 z m 90.305337,-73.83123 c 19.88482,-17.68052 25.25262,-44.01959 33.30582,-68.02422 0.78268,-23.0033 27.54293,-62.12813 9.65655,-75.14276 -19.36426,14.42098 -44.37218,21.34924 -59.798954,40.63824 13.053794,9.61902 3.409431,25.35531 -7.841072,8.66855 -7.300955,8.04786 -36.10964,4.49054 -12.901742,12.45892 2.31542,10.60498 17.954189,24.9323 -1.441699,16.92097 -10.98832,-2.73951 -16.956615,-25.81732 -19.979586,-5.00429 -1.996156,21.3883 -35.317459,25.0464 -35.747992,49.45252 C -8.9586731,911.70835 19.651943,877.961 8.9946092,858.31612 -2.909975,851.42177 -0.90861642,800.11594 6.999974,832.99977 c 25.508753,14.8684 9.696412,-29.34024 13.618252,-42.66532 -0.566466,10.7104 18.108935,33.1265 32.719096,13.23831 19.523902,-18.49449 18.971692,-48.54492 20.165986,-70.93636 -6.588118,-6.08837 4.326849,-39.52817 4.600528,-27.04414 -5.149055,29.16993 30.680554,18.64521 24.106874,-5.56824 -1.89797,-20.54502 10.79066,-54.69473 22.605,-59.31084 -11.42555,15.73204 -11.12898,67.60494 18.13028,46.64717 24.18157,-31.56683 43.13293,-67.57701 74.75176,-93.00681 24.58616,-21.39978 51.78998,-42.0864 82.08774,-53.90465 -34.79589,24.77495 -71.59849,51.83513 -90.97289,90.80602 -6.52658,10.49 -1.82651,26.83952 -15.20035,32.21596 -34.32877,23.45004 -61.62327,56.13808 -77.96671,94.13349 -13.10893,25.87296 -41.671668,34.95388 -60.494873,56.16731 -18.860919,3.13235 -18.267484,19.39759 -13.437852,34.05963 21.096268,-28.61816 42.473332,-61.9178 78.568505,-73.70015 29.138,-13.9708 55.73778,12.56399 47.73799,42.02746 -2.63544,36.18673 -18.39604,69.64959 -31.29527,102.8419 18.52723,-25.8974 23.15837,-58.55907 38.6178,-86.04444 0.96707,-18.36417 -4.96429,-27.05292 8.7928,-15.87334 1.38555,-11.69804 -21.96932,-31.06453 -0.048,-17.1437 28.47473,20.46996 -14.48487,-23.43238 -13.5719,-18.07359 14.15431,0.19681 47.56581,29.38017 25.72349,2.09541 5.87858,0.12683 23.24193,18.33766 17.06452,2.98972 11.69807,4.22471 29.7992,8.1513 10.78288,16.85199 -14.9306,21.143 -43.60583,31.43214 -52.03195,56.74605 -5.47131,25.42343 -26.51338,45.41883 -26.53311,72.43667 -12.94148,0.84969 -24.85907,10.74293 -36.38525,10.95019 z M 25.446409,880.11305 c 19.284022,-9.44483 -10.230016,-55.41368 -3.280699,-22.61859 7.382643,6.39672 -12.008223,39.40965 3.280699,22.61859 z m 50.053748,-36.02247 c 18.236597,-22.39774 45.435373,-32.69534 67.212763,-50.20801 2.45645,-25.69692 -24.4409,6.92463 -20.24407,4.3747 -1.07372,-36.35329 -28.800962,22.25376 -23.423939,15.1594 -6.034972,-28.82283 -18.090824,7.02957 -20.476396,18.7068 -1.226761,10.9402 -10.373507,-22.00954 -11.06131,0.66489 5.174494,10.38998 -18.353189,2.50728 -9.567762,14.53112 5.978256,0.058 12.051545,-0.84787 17.560714,-3.2289 z m 27.600873,-92.08514 c 12.04086,-21.24015 -22.813717,8.71336 -11.262293,15.76942 4.507312,-4.68847 8.128908,-10.1055 11.262293,-15.76942 z M 50.088086,936.34165 c -21.20802,-5.35604 -29.664672,-43.3361 -5.421281,-39.75961 -2.074901,13.67913 14.506751,37.79064 11.195685,42.7193 l -2.679985,-1.33362 -3.094419,-1.62607 0,0 z m 58.584934,-9.35779 c -9.562648,-1.14104 -39.589544,-26.99049 -14.253411,-14.99206 10.969161,5.52092 45.099491,-0.56732 20.838071,16.98171 l -2.24993,-0.60141 -4.33473,-1.38824 0,0 z M 89.260116,902.11732 c -0.176871,-25.76185 17.916674,-44.78576 34.918034,-61.80773 11.27224,-10.63938 -16.37945,-20.16707 5.65527,-21.76209 11.45503,-4.30065 30.16305,-23.16512 23.10016,1.71411 -3.01855,11.58492 -2.1853,28.95953 -12.83364,35.93385 -22.66537,7.94242 -40.696659,26.44694 -45.489889,50.10593 -2.386927,3.17446 -7.528046,-0.28263 -5.349935,-4.18407 z m 28.292874,-0.91372 c -23.695362,-7.31236 34.96303,-13.59387 9.44265,1.37031 -3.11872,1.62174 -6.49193,-0.6908 -9.44265,-1.37031 z m 161.54445,-58.66056 c -17.40631,-28.35395 -40.9787,-59.25927 -77.42683,-61.74575 -24.45979,3.31432 -4.36433,-25.16493 -25.13376,-25.45983 -8.50512,-10.20632 4.58857,-25.15219 -16.74597,-21.63155 -30.26331,-13.0488 5.07152,-44.80503 20.80143,-56.44574 22.3107,-16.12971 45.68004,-30.85622 69.35808,-44.94029 -15.92424,11.50353 -44.72386,43.82435 -12.31195,53.15443 20.48636,3.75175 41.37896,1.41648 62.05642,1.07206 -18.08126,3.41847 -43.82449,17.46128 -32.89614,39.01538 6.48847,19.05858 42.34418,23.12944 49.00081,28.14163 -31.36493,1.94319 -35.3131,36.20552 -32.87432,60.4688 -4.06932,8.3259 11.13779,58.25154 -3.82777,28.37086 z m -4.67838,-32.90131 c -6.22648,-18.41823 7.93499,-44.00618 9.15821,-55.04613 -28.56404,4.19402 -57.80691,1.13415 -86.27232,5.31183 -9.06222,22.61459 39.92347,14.72797 49.04178,32.6722 9.96947,3.38628 36.51862,51.39411 28.07233,17.0621 z m -24.20838,-61.0104 c 15.03396,0.22362 26.02138,-2.59475 9.65097,-15.10309 -11.06083,-6.89107 6.0185,-37.57136 -9.52572,-30.22037 -22.36433,8.89136 -46.06534,17.01545 -64.57523,32.70424 -7.99712,25.91952 40.17275,12.02369 55.36936,13.5772 3.02993,-0.29012 6.05692,-0.61012 9.08062,-0.95798 z m -62.02813,-25.20997 c 16.82971,-6.11703 44.27894,-16.21121 51.91777,-26.97564 -26.2465,1.63047 -20.55704,-48.17939 -43.69861,-22.30369 -14.88748,10.85412 -55.96459,33.87888 -31.49235,51.34919 7.72095,2.01482 15.79095,-0.0208 23.27319,-2.06986 z M 43.409535,834.66924 c -4.448506,-10.42006 16.165082,-21.29971 15.336625,-17.16777 -3.594476,3.26917 -15.94821,27.28951 -15.336625,17.16777 z M 505.83339,789.37846 c -26.01544,-32.2651 -66.81169,-53.603 -109.16599,-50.50044 -27.17686,-3.04643 -52.91155,6.65543 -79.4537,9.43903 -7.21621,-1.00151 -40.28084,-8.40148 -19.01826,-13.46724 37.82229,-18.95917 80.6998,-26.5143 122.83443,-21.59811 29.33801,-0.11745 50.45606,23.81494 67.49543,44.55061 3.83554,5.13535 27.02978,41.2794 17.30809,31.57615 z m -38.53794,-44.06588 c -21.5731,-28.41051 -62.29047,-26.10074 -94.49126,-25.30954 -16.68112,3.69217 -59.6634,7.42499 -59.25336,19.82701 35.23913,2.62017 69.59499,-14.20864 105.04448,-6.60789 16.63887,1.16955 33.79445,10.72739 48.70014,12.09042 z m -293.39449,33.75401 c -16.85011,-14.63878 -45.75939,-12.50653 -60.00472,-9.06028 8.62236,-15.60079 17.67321,-30.96473 26.54633,-46.42644 0.87802,17.70966 30.59945,8.93153 27.51562,22.43533 -0.0186,14.37682 19.59937,14.42039 15.25075,31.42554 5.82151,6.73037 -7.51984,1.16176 -9.30798,1.62585 z m 105.30698,-45.74416 c -28.79015,-21.34582 7.81567,-45.50991 31.27384,-44.29413 65.38736,-11.181 132.35455,1.63733 194.86126,21.02553 -25.49973,-5.3337 -53.07644,-7.9793 -77.71417,-0.41486 -45.79014,-5.79683 -93.37434,0.1151 -134.32134,22.01463 -5.00679,1.75945 -9.46276,7.00643 -14.09959,1.66883 z m 22.94991,-14.60079 c 38.20948,-16.95711 80.97187,-20.36854 122.24359,-16.33063 18.04794,-7.99306 -23.87345,-8.4433 -31.81084,-10.45984 -38.38662,-2.55137 -79.58099,-2.03173 -114.27712,16.2226 -9.89874,17.4751 14.0937,17.81957 23.84437,10.56787 z m -53.42699,-35.45662 c -20.71465,1.80575 -31.74304,-27.62034 -4.61892,-24.74206 28.22098,-17.85316 57.44557,-36.20124 91.552,-40.34878 13.50655,-3.62738 50.2639,-3.43135 17.21673,1.21044 -25.81687,6.95136 -56.96165,13.00876 -71.19572,37.99429 -1.55064,11.56158 15.97446,21.94625 -6.15216,24.6911 -8.70302,2.2997 -17.92202,2.61236 -26.80193,1.19501 z m 26.64384,-8.0737 c -5.1851,-7.39748 3.79096,-34.50846 -13.69521,-18.76701 -11.95444,4.3067 -32.46392,19.09936 -6.71138,20.20799 6.78819,0.50007 13.83393,0.52407 20.40659,-1.44098 z m 15.90187,3.91587 c 27.94234,-22.20615 64.07451,-31.26821 99.50888,-29.02744 20.76613,0.1411 41.42718,2.39886 61.96931,5.24426 -23.9836,1.86 -49.32037,-1.51839 -71.91123,7.77279 -16.51482,9.11121 23.78874,18.70195 -6.62937,15.06226 -28.97475,-1.20799 -57.98789,0.6598 -86.76409,3.98993 1.2755,-1.01393 2.55099,-2.02787 3.8265,-3.0418 z m 39.54876,-7.33449 c 12.9014,0.13517 46.77416,0.42526 33.40819,-13.72118 -15.23207,2.62847 -44.63043,10.59561 -49.99797,16.15113 5.51082,-0.93085 11.05396,-1.66299 16.58978,-2.42995 z"
       id="path3347"
       inkscape:connector-curvature="0" />
  </g>
</svg>
